<svg width="20" height="30" viewBox="0 0 20 30" fill="none" xmlns="http://www.w3.org/2000/svg">
<path d="M11.2468 6.25C12.0598 7.38815 12.4968 8.75188 12.4968 10.1506V11.5C12.9253 11.5 13.3414 11.3568 13.6791 11.0931C14.0168 10.8294 14.2567 10.4605 14.3606 10.0448L14.4968 9.5L14.8663 9.94344C15.4621 10.6583 15.7854 11.561 15.7789 12.4915C15.7725 13.4221 15.4367 14.3202 14.8311 15.0268C14.6041 15.2915 14.4855 15.6322 14.4988 15.9806C14.5122 16.3291 14.6565 16.6596 14.9031 16.9062C15.0407 17.0439 15.2059 17.151 15.3877 17.2205C15.5696 17.29 15.7641 17.3203 15.9584 17.3096C16.1528 17.2988 16.3427 17.2471 16.5158 17.158C16.6889 17.0688 16.8412 16.9441 16.9628 16.7921L17.9968 15.5L18.9968 18C19.4503 19.5115 19.486 21.1177 19.1002 22.6479C18.7144 24.1781 17.9215 25.5753 16.8056 26.6912L16.6795 26.8173C14.9619 28.535 12.6322 29.5 10.2031 29.5H9.18277C7.60108 29.5 6.04636 29.0904 4.66998 28.3111C3.29359 27.5318 2.14247 26.4094 1.3287 25.0531C0.354279 23.4291 -0.0927362 21.5429 0.0492014 19.6542C0.191139 17.7656 0.91505 15.9674 2.12127 14.5072L6.16902 9.60725C6.5679 9.12442 6.82425 8.53994 6.90926 7.91945C6.99427 7.29897 6.90458 6.66707 6.65027 6.09475C6.32758 5.36877 6.27194 4.55208 6.4932 3.78904C6.71445 3.026 7.19833 2.36575 7.85933 1.925L9.99683 0.5V2.34944C9.99682 3.74812 10.4339 5.11185 11.2468 6.25Z" fill="url(#paint0_linear_5_920)"/>
<path d="M13.6895 26.0882L13.6939 26.0838C14.4716 25.3001 15.0265 24.3234 15.3014 23.2541C15.5763 22.1848 15.5613 21.0616 15.258 20L13.8034 21.4546C13.6662 21.5919 13.5032 21.7008 13.3238 21.7751C13.1445 21.8494 12.9522 21.8877 12.7581 21.8877C12.5639 21.8877 12.3717 21.8494 12.1923 21.7751C12.013 21.7008 11.85 21.5919 11.7127 21.4546C11.4519 21.1938 11.2979 20.8448 11.2812 20.4763C11.2644 20.1078 11.386 19.7463 11.6222 19.4629C12.1085 18.8794 12.4141 18.1667 12.5017 17.4122C12.5892 16.6577 12.4549 15.8941 12.1152 15.2147L9.75799 10.5L9.39549 14.4875C9.35202 14.9657 9.2124 15.4303 8.98501 15.8532C8.75761 16.2762 8.44713 16.6488 8.07218 16.9489L6.01137 18.5976C5.46435 19.0352 5.02276 19.5902 4.71931 20.2216C4.41585 20.853 4.25829 21.5445 4.2583 22.2451V22.8125C4.25831 23.4973 4.40886 24.1736 4.6993 24.7938C4.98973 25.4139 5.41296 25.9626 5.93899 26.4009C6.79065 27.1106 7.86695 27.4943 8.97549 27.4834L10.4204 27.4691C11.6493 27.4568 12.8239 26.9606 13.6895 26.0882Z" fill="#FDD04A"/>
<path d="M1.5 11C1.36739 11 1.24021 10.9473 1.14645 10.8536C1.05268 10.7598 1 10.6326 1 10.5V9.5C1 9.36739 1.05268 9.24021 1.14645 9.14645C1.24021 9.05268 1.36739 9 1.5 9C1.63261 9 1.75979 9.05268 1.85355 9.14645C1.94732 9.24021 2 9.36739 2 9.5V10.5C2 10.6326 1.94732 10.7598 1.85355 10.8536C1.75979 10.9473 1.63261 11 1.5 11Z" fill="#FE691E"/>
<path d="M3 8.5C2.86739 8.5 2.74021 8.44732 2.64645 8.35355C2.55268 8.25979 2.5 8.13261 2.5 8V7C2.5 6.86739 2.55268 6.74021 2.64645 6.64645C2.74021 6.55268 2.86739 6.5 3 6.5C3.13261 6.5 3.25979 6.55268 3.35355 6.64645C3.44732 6.74021 3.5 6.86739 3.5 7V8C3.5 8.13261 3.44732 8.25979 3.35355 8.35355C3.25979 8.44732 3.13261 8.5 3 8.5Z" fill="#FF8D54"/>
<path d="M1 6.5C0.867392 6.5 0.740215 6.44732 0.646447 6.35355C0.552679 6.25979 0.5 6.13261 0.5 6V5C0.5 4.86739 0.552679 4.74021 0.646447 4.64645C0.740215 4.55268 0.867392 4.5 1 4.5C1.13261 4.5 1.25979 4.55268 1.35355 4.64645C1.44732 4.74021 1.5 4.86739 1.5 5V6C1.5 6.13261 1.44732 6.25979 1.35355 6.35355C1.25979 6.44732 1.13261 6.5 1 6.5Z" fill="#FFB895"/>
<path d="M18.5 12.5C18.3674 12.5 18.2402 12.4473 18.1464 12.3536C18.0527 12.2598 18 12.1326 18 12V11C18 10.8674 18.0527 10.7402 18.1464 10.6464C18.2402 10.5527 18.3674 10.5 18.5 10.5C18.6326 10.5 18.7598 10.5527 18.8536 10.6464C18.9473 10.7402 19 10.8674 19 11V12C19 12.1326 18.9473 12.2598 18.8536 12.3536C18.7598 12.4473 18.6326 12.5 18.5 12.5Z" fill="#FE691E"/>
<path d="M17 9C16.8674 9 16.7402 8.94732 16.6464 8.85355C16.5527 8.75979 16.5 8.63261 16.5 8.5V7.5C16.5 7.36739 16.5527 7.24021 16.6464 7.14645C16.7402 7.05268 16.8674 7 17 7C17.1326 7 17.2598 7.05268 17.3536 7.14645C17.4473 7.24021 17.5 7.36739 17.5 7.5V8.5C17.5 8.63261 17.4473 8.75979 17.3536 8.85355C17.2598 8.94732 17.1326 9 17 9Z" fill="#FF8D54"/>
<path d="M19 7.5C18.8674 7.5 18.7402 7.44732 18.6464 7.35355C18.5527 7.25979 18.5 7.13261 18.5 7V5.5C18.5 5.36739 18.5527 5.24021 18.6464 5.14645C18.7402 5.05268 18.8674 5 19 5C19.1326 5 19.2598 5.05268 19.3536 5.14645C19.4473 5.24021 19.5 5.36739 19.5 5.5V7C19.5 7.13261 19.4473 7.25979 19.3536 7.35355C19.2598 7.44732 19.1326 7.5 19 7.5Z" fill="#FFB895"/>
<defs>
<linearGradient id="paint0_linear_5_920" x1="9.69442" y1="0.5" x2="9.69442" y2="29.5" gradientUnits="userSpaceOnUse">
<stop stop-color="#FF9159"/>
<stop offset="0.6875" stop-color="#FF7631"/>
<stop offset="1" stop-color="#FF6A1F"/>
</linearGradient>
</defs>
</svg>
