<svg width="96" height="96" viewBox="0 0 96 96" fill="none" xmlns="http://www.w3.org/2000/svg">
<path d="M47 51.9997V43.9997L52 47.733L47 51.9997Z" fill="#254C63"/>
<path d="M49.8472 11.6193C49.8472 11.213 49.7033 10.8999 49.4155 10.6798C49.132 10.4598 48.6178 10.2376 47.873 10.0133C47.1283 9.78905 46.5358 9.53938 46.0957 9.26431C45.2536 8.73534 44.8325 8.04556 44.8325 7.19498C44.8325 6.45019 45.1351 5.83658 45.7402 5.35416C46.3496 4.87173 47.1388 4.63052 48.1079 4.63052C48.7511 4.63052 49.3245 4.74901 49.8281 4.98599C50.3317 5.22297 50.7274 5.56151 51.0151 6.00162C51.3029 6.43749 51.4468 6.92203 51.4468 7.45523H49.8472C49.8472 6.97281 49.6948 6.59618 49.3901 6.32535C49.0897 6.05028 48.658 5.91275 48.0952 5.91275C47.5705 5.91275 47.1621 6.02489 46.8701 6.24918C46.5824 6.47346 46.4385 6.78661 46.4385 7.18863C46.4385 7.52717 46.5951 7.8107 46.9082 8.03922C47.2214 8.2635 47.7376 8.48355 48.457 8.69937C49.1764 8.91096 49.7541 9.15429 50.1899 9.42935C50.6258 9.70019 50.9453 10.0133 51.1484 10.3688C51.3516 10.72 51.4531 11.1326 51.4531 11.6066C51.4531 12.3768 51.1569 12.9904 50.5645 13.4474C49.9762 13.9002 49.1764 14.1266 48.165 14.1266C47.4964 14.1266 46.8807 14.0039 46.3179 13.7585C45.7593 13.5088 45.3234 13.166 45.0103 12.7301C44.7013 12.2943 44.5469 11.7864 44.5469 11.2067H46.1528C46.1528 11.7314 46.3263 12.1377 46.6733 12.4254C47.0203 12.7132 47.5176 12.8571 48.165 12.8571C48.7236 12.8571 49.1426 12.7449 49.4219 12.5207C49.7054 12.2921 49.8472 11.9917 49.8472 11.6193Z" fill="#254C63"/>
<path d="M65.0506 13.7955L61.5437 12.3429L60.4554 14.9702L64.5547 16.6681L64.064 17.8528L58.481 15.5402L62.0178 7.00154L67.5598 9.29708L67.0642 10.4934L63.006 8.81247L62.0295 11.17L65.5364 12.6226L65.0506 13.7955Z" fill="#254C63"/>
<path d="M76.8407 22.9254L74.1566 20.2413L72.1457 22.2521L75.2832 25.3896L74.3765 26.2963L70.1035 22.0232L76.6387 15.488L80.8803 19.7296L79.9647 20.6453L76.8586 17.5393L75.0543 19.3436L77.7384 22.0277L76.8407 22.9254Z" fill="#254C63"/>
<path d="M82 51.6559V50.0563H86.1069V45.924H82V44.318H91.2422V45.924H87.3955V50.0563H91.2422V51.6559H82Z" fill="#254C63"/>
<path d="M81.8984 66.4444C81.0617 66.0978 80.3866 65.6487 79.8731 65.0971C79.3635 64.547 79.0503 63.9318 78.9337 63.2514C78.8193 62.5765 78.9071 61.8891 79.1969 61.1893C79.4836 60.4973 79.9076 59.9492 80.4689 59.545C81.0325 59.1464 81.6886 58.9281 82.4372 58.89C83.1842 58.8559 83.9671 59.0061 84.7858 59.3407L85.2667 59.5399C86.0995 59.8848 86.7738 60.3359 87.2896 60.8931C87.8038 61.4542 88.1181 62.0722 88.2324 62.7471C88.3491 63.4275 88.2633 64.1156 87.975 64.8116C87.6868 65.5075 87.2636 66.0536 86.7055 66.45C86.1497 66.8518 85.4964 67.069 84.7454 67.1015C83.9984 67.1356 83.2078 66.9822 82.3734 66.6412L81.8984 66.4444ZM82.9586 65.1453C83.9048 65.5372 84.7045 65.6578 85.3578 65.507C86.0095 65.3601 86.4714 64.9583 86.7435 64.3014C87.0091 63.6603 86.965 63.0534 86.6113 62.4809C86.2598 61.9139 85.6263 61.4363 84.7108 61.0479L84.2182 60.8438C83.2799 60.4552 82.4793 60.3366 81.8166 60.488C81.1522 60.6434 80.6856 61.0456 80.4167 61.6946C80.1447 62.3514 80.186 62.9594 80.5407 63.5185C80.8937 64.0816 81.5512 64.5623 82.5129 64.9607L82.9586 65.1453Z" fill="#254C63"/>
<path d="M71.7398 75.5734L75.6538 81.4981L74.5272 82.6247L69.5001 74.5814L70.5863 73.4952L76.6009 77.0231L73.0999 70.9816L74.1906 69.8909L82.2339 74.918L81.1073 76.0446L75.1825 72.1486L78.8451 78.3068L77.8935 79.2584L71.7398 75.5734Z" fill="#254C63"/>
<path d="M47.2002 81.9996H48.7998V91.2418H47.2002V81.9996Z" fill="#254C63"/>
<path d="M28.5605 85.3504L31.2229 86.4532L34.2642 79.1109L35.7362 79.7206L32.6949 87.0629L35.3339 88.1561L34.8384 89.3524L28.0649 86.5468L28.5605 85.3504Z" fill="#254C63"/>
<path d="M13.4453 59.3814L6.47367 60.7301L5.86395 59.2581L15.2188 57.6917L15.8067 59.1109L10.2456 63.3175L17.167 62.395L17.7573 63.8201L10.0348 69.3274L9.42508 67.8554L15.2918 63.8725L8.20079 64.8997L7.68581 63.6564L13.4453 59.3814Z" fill="#254C63"/>
<path d="M9.62012 44.172C10.5257 44.172 11.3213 44.3286 12.0068 44.6417C12.6882 44.9549 13.2129 45.4034 13.5811 45.9874C13.945 46.5672 14.127 47.2358 14.127 47.9933C14.127 48.7423 13.945 49.4109 13.5811 49.9991C13.2129 50.5831 12.6903 51.0359 12.0132 51.3575C11.3361 51.6749 10.5553 51.8357 9.6709 51.84H9.15039C8.24902 51.84 7.45345 51.6813 6.76367 51.3639C6.07389 51.0423 5.54704 50.5916 5.18311 50.0118C4.81494 49.4279 4.63086 48.7592 4.63086 48.006C4.63086 47.2527 4.81283 46.5862 5.17676 46.0065C5.53646 45.4225 6.05697 44.9718 6.73828 44.6544C7.41536 44.337 8.20459 44.1762 9.10596 44.172H9.62012ZM9.1377 45.778C8.11361 45.778 7.32861 45.9726 6.78271 46.3619C6.23682 46.747 5.96387 47.295 5.96387 48.006C5.96387 48.7 6.23682 49.2438 6.78271 49.6373C7.32438 50.0267 8.09245 50.2255 9.08691 50.234H9.62012C10.6357 50.234 11.4207 50.0372 11.9751 49.6437C12.5295 49.2459 12.8066 48.6958 12.8066 47.9933C12.8066 47.2823 12.5358 46.7365 11.9941 46.3556C11.4525 45.9705 10.6611 45.778 9.62012 45.778H9.1377Z" fill="#254C63"/>
<path d="M13.497 33.1461L12.812 34.7999L16.1019 36.1626L15.4874 37.6464L6.94871 34.1095L8.19243 31.1069C8.60052 30.1217 9.1364 29.4528 9.80005 29.1001C10.4637 28.7475 11.2139 28.7445 12.0505 29.091C12.6213 29.3275 13.0428 29.6646 13.3148 30.1025C13.5846 30.5349 13.7211 31.0403 13.7243 31.6188L18.0783 31.1756L18.1546 31.2072L17.4963 32.7964L13.497 33.1461ZM11.6215 34.3068L12.2531 32.782C12.4604 32.2816 12.4972 31.8388 12.3636 31.4537C12.226 31.0669 11.9383 30.7828 11.5005 30.6015C11.043 30.412 10.635 30.3964 10.2762 30.5547C9.91914 30.7091 9.6298 31.0427 9.40821 31.5555L8.75963 33.1214L11.6215 34.3068Z" fill="#254C63"/>
<path d="M20.9494 21.3239L20.9943 22.8499L23.032 24.8877L21.8965 26.0233L15.3612 19.4881L16.4968 18.3525L19.5625 21.4181L19.4143 20.0132L19.0373 15.812L20.4108 14.4385L20.8776 19.7619L27.0851 20.8346L25.7386 22.1812L20.9494 21.3239Z" fill="#254C63"/>
<path d="M35.7845 13.6819C35.629 13.3065 35.3763 13.0723 35.0262 12.9791C34.68 12.8843 34.12 12.8758 33.3461 12.9536C32.5721 13.0314 31.9292 13.0275 31.4174 12.9418C30.4369 12.7753 29.784 12.2992 29.4585 11.5133C29.1734 10.8252 29.2182 10.1426 29.5926 9.46528C29.971 8.78638 30.6078 8.26151 31.5031 7.89066C32.0974 7.64451 32.6725 7.53455 33.2284 7.56077C33.7844 7.587 34.2795 7.74836 34.7138 8.04484C35.1464 8.33741 35.4648 8.73001 35.6688 9.22262L34.191 9.83477C34.0064 9.38907 33.7215 9.09941 33.3363 8.96579C32.9535 8.82664 32.5021 8.86476 31.9821 9.08014C31.4973 9.28095 31.1629 9.54083 30.979 9.85978C30.799 10.1771 30.7859 10.5215 30.9397 10.8929C31.0693 11.2057 31.3224 11.4077 31.6992 11.499C32.0744 11.5864 32.6355 11.5921 33.3828 11.5162C34.1284 11.4364 34.7552 11.4401 35.2631 11.5274C35.7695 11.6109 36.1845 11.7779 36.5082 12.0286C36.8302 12.2754 37.082 12.6177 37.2633 13.0556C37.5581 13.7671 37.5192 14.4474 37.1468 15.0963C36.7766 15.7398 36.1243 16.255 35.1899 16.642C34.5722 16.8979 33.9564 17.0202 33.3425 17.0088C32.7309 16.9919 32.197 16.842 31.7409 16.5591C31.2887 16.2747 30.9516 15.8646 30.7298 15.329L32.2135 14.7144C32.4143 15.1992 32.7301 15.5082 33.1608 15.6412C33.5915 15.7743 34.1059 15.7169 34.7041 15.4692C35.2202 15.2554 35.5643 14.9915 35.7365 14.6774C35.911 14.3577 35.927 14.0259 35.7845 13.6819Z" fill="#254C63"/>
<circle cx="63" cy="84.9996" r="2" fill="#254C63"/>
<circle cx="84" cy="30.9997" r="2" fill="#254C63"/>
<circle cx="20" cy="76.9996" r="2" fill="#254C63"/>
</svg>
